<svg xmlns="http://www.w3.org/2000/svg" xmlns:xlink="http://www.w3.org/1999/xlink" width="1920" zoomAndPan="magnify" viewBox="0 0 1440 809.999993" height="1080" preserveAspectRatio="xMidYMid meet" version="1.0"><defs><g/></defs><g fill="#000000" fill-opacity="1"><g transform="translate(122.170298, 475.280714)"><g><path d="M 383.074219 -230.953125 C 381.445312 -241.375 377.210938 -247.890625 370.371094 -250.171875 C 362.878906 -253.101562 353.429688 -249.519531 342.355469 -239.421875 C 339.75 -236.816406 339.425781 -232.90625 341.703125 -230.300781 C 343.984375 -227.695312 347.894531 -227.695312 350.5 -229.972656 C 361.25 -239.421875 365.484375 -238.769531 366.460938 -238.445312 C 368.414062 -237.792969 370.042969 -234.210938 371.019531 -228.671875 C 379.816406 -176.226562 316.621094 14.332031 240.074219 75.246094 C 232.582031 81.4375 221.832031 87.949219 214.664062 84.367188 C 195.773438 74.921875 196.75 6.839844 197.398438 -38.4375 C 198.050781 -89.90625 197.726562 -112.707031 185.347656 -115.964844 C 177.53125 -118.246094 169.710938 -111.078125 157.984375 -90.554688 C 114.011719 -12.050781 78.503906 46.90625 52.769531 85.019531 C 25.734375 125.085938 14.984375 133.878906 11.402344 135.507812 C 9.121094 127.367188 10.75 79.480469 114.660156 -191.535156 C 139.742188 -256.683594 154.726562 -284.046875 161.570312 -292.515625 C 161.894531 -289.257812 161.894531 -284.046875 161.570312 -274.925781 C 161.242188 -271.667969 163.847656 -268.738281 167.105469 -268.414062 C 170.6875 -268.085938 173.621094 -270.691406 173.945312 -274.277344 C 175.25 -292.515625 174.273438 -305.222656 165.152344 -307.175781 C 158.960938 -308.804688 147.234375 -311.410156 102.933594 -195.773438 C 79.480469 -134.53125 46.582031 -46.90625 24.429688 22.800781 C -9.773438 129.972656 -3.582031 143.328125 5.539062 147.5625 C 7.167969 148.214844 8.46875 148.863281 10.097656 148.863281 C 18.894531 148.863281 31.597656 137.789062 58.632812 98.699219 C 85.019531 60.589844 122.152344 -0.976562 169.0625 -84.367188 C 175.902344 -96.746094 180.136719 -101.304688 182.089844 -102.933594 C 185.671875 -94.792969 185.023438 -62.542969 184.695312 -38.4375 C 183.71875 30.292969 185.023438 83.714844 209.125 95.441406 C 219.550781 100.65625 232.582031 97.070312 247.890625 85.019531 C 329 20.523438 392.847656 -174.925781 383.074219 -230.953125 Z M 383.074219 -230.953125 "/></g></g></g><g fill="#000000" fill-opacity="1"><g transform="translate(499.695062, 475.280714)"><g><path d="M 110.101562 -72.640625 C 107.167969 -74.59375 103.261719 -73.945312 101.304688 -71.011719 C 76.875 -36.808594 57.003906 -15.308594 37.460938 -1.304688 C 27.6875 5.539062 18.242188 6.839844 12.050781 2.28125 C 8.144531 -0.652344 -3.910156 -13.679688 10.097656 -59.285156 C 41.695312 -85.34375 58.960938 -110.101562 54.398438 -123.128906 C 52.769531 -127.039062 48.863281 -129.644531 44.625 -129.644531 C 31.597656 -129.320312 11.726562 -106.84375 -1.304688 -64.824219 C -17.265625 -13.03125 -4.234375 5.863281 4.886719 12.378906 C 9.445312 15.960938 14.660156 17.589844 20.523438 17.589844 C 28.015625 17.589844 36.484375 14.660156 44.625 8.796875 C 65.472656 -6.1875 85.996094 -28.339844 111.402344 -63.84375 C 113.359375 -66.777344 112.707031 -70.6875 110.101562 -72.640625 Z M 42.019531 -115.964844 C 40.71875 -110.753906 35.179688 -100.328125 19.871094 -84.691406 C 28.339844 -103.585938 37.460938 -112.707031 42.019531 -115.964844 Z M 42.019531 -115.964844 "/></g></g></g><g fill="#000000" fill-opacity="1"><g transform="translate(594.483408, 475.280714)"><g><path d="M 137.464844 -72.964844 C 134.53125 -74.59375 130.621094 -73.617188 128.667969 -70.6875 C 111.402344 -42.671875 84.367188 -17.589844 51.792969 1.628906 C 65.800781 -17.589844 72.640625 -39.414062 72.316406 -52.769531 C 71.988281 -65.148438 66.125 -68.730469 62.542969 -69.707031 C 52.445312 -72.964844 39.089844 -62.867188 22.152344 -38.761719 C 16.289062 -30.945312 10.421875 -20.523438 4.234375 -8.144531 C 14.007812 -52.769531 27.363281 -111.078125 37.460938 -154.726562 C 80.785156 -232.582031 102.933594 -291.214844 93.8125 -303.917969 C 91.859375 -306.851562 88.601562 -307.828125 85.34375 -307.175781 C 71.335938 -304.570312 49.511719 -257.011719 34.855469 -196.75 C 32.25 -187.628906 29.316406 -174.273438 25.734375 -158.960938 C 25.40625 -158.3125 25.40625 -157.660156 25.082031 -157.007812 C 7.492188 -81.4375 -21.171875 46.253906 -21.5 57.003906 C -21.824219 60.261719 -19.542969 62.867188 -16.289062 63.519531 C -15.960938 63.519531 -15.636719 63.519531 -15.308594 63.519531 C -12.703125 63.519531 -10.097656 61.890625 -9.445312 58.960938 C -6.515625 50.488281 -3.582031 42.019531 -0.324219 33.550781 C 1.304688 35.832031 4.234375 37.132812 7.167969 36.15625 C 40.71875 24.105469 102.609375 -4.558594 139.417969 -64.171875 C 141.046875 -67.101562 140.394531 -71.011719 137.464844 -72.964844 Z M 83.0625 -289.257812 C 80.457031 -276.230469 71.335938 -248.214844 49.511719 -204.242188 C 61.890625 -251.472656 75.246094 -278.183594 83.0625 -289.257812 Z M 3.257812 24.105469 C 12.703125 1.628906 23.128906 -18.894531 32.25 -31.597656 C 49.839844 -56.355469 57.65625 -57.65625 58.632812 -57.65625 C 59.285156 -57.003906 60.914062 -52.769531 58.960938 -43 C 54.726562 -22.800781 36.808594 11.726562 3.257812 24.105469 Z M 3.257812 24.105469 "/></g></g></g><g fill="#000000" fill-opacity="1"><g transform="translate(716.959095, 475.280714)"><g><path d="M 83.0625 -75.246094 C 80.132812 -95.769531 65.472656 -109.773438 45.605469 -114.011719 C 72.316406 -136.8125 83.0625 -153.425781 78.179688 -164.824219 C 75.574219 -171.667969 67.753906 -174.597656 57.980469 -173.296875 C 42.347656 -171.339844 24.429688 -159.613281 22.152344 -143 C 21.824219 -139.417969 24.429688 -136.160156 28.015625 -135.507812 C 31.597656 -135.183594 34.855469 -137.464844 35.507812 -141.371094 C 36.808594 -149.515625 45.605469 -156.03125 54.074219 -158.960938 C 61.238281 -161.242188 65.148438 -160.265625 65.800781 -159.613281 C 65.800781 -159.613281 67.753906 -147.886719 24.105469 -113.683594 C 21.5 -112.054688 20.847656 -108.796875 21.824219 -106.191406 C 22.800781 -103.261719 25.734375 -101.632812 28.664062 -101.957031 C 50.816406 -103.585938 67.101562 -92.183594 70.035156 -73.292969 C 74.269531 -46.90625 52.117188 -12.378906 -5.863281 1.953125 C -9.445312 2.605469 -11.402344 6.1875 -10.75 9.773438 C -9.773438 13.03125 -7.167969 14.984375 -4.234375 14.984375 C -3.582031 14.984375 -2.933594 14.984375 -2.605469 14.984375 C 63.519531 -1.304688 88.277344 -43.324219 83.0625 -75.246094 Z M 83.0625 -75.246094 "/></g></g></g><g fill="#000000" fill-opacity="1"><g transform="translate(810.770292, 475.280714)"><g><path d="M 421.1875 -376.558594 C 420.207031 -379.816406 416.625 -381.769531 413.367188 -380.46875 C 390.566406 -373.300781 355.710938 -362.878906 315.644531 -350.5 C 251.800781 -331.28125 171.992188 -307.175781 110.101562 -286.652344 C 75.898438 -274.925781 50.488281 -265.804688 32.574219 -258.3125 C 3.257812 -245.9375 -1.953125 -240.074219 -1.628906 -233.558594 C -1.304688 -230.300781 0.652344 -225.738281 9.445312 -224.109375 C 9.773438 -224.109375 10.097656 -224.109375 10.421875 -224.109375 C 13.355469 -224.109375 15.960938 -226.066406 16.613281 -228.996094 C 17.265625 -231.601562 15.960938 -234.210938 14.007812 -235.511719 C 22.476562 -240.722656 47.234375 -252.449219 120.851562 -276.882812 C 137.789062 -282.417969 155.707031 -288.28125 173.945312 -294.144531 C 163.523438 -251.148438 148.539062 -184.371094 132.902344 -114.011719 C 111.078125 -15.308594 82.738281 112.382812 67.429688 165.804688 C 67.429688 161.894531 68.082031 157.660156 68.40625 152.449219 C 68.730469 149.191406 66.125 145.933594 62.542969 145.605469 C 59.285156 145.28125 56.355469 147.886719 56.027344 151.46875 C 52.117188 193.492188 53.746094 200.332031 60.914062 201.308594 C 61.566406 201.308594 61.890625 201.636719 62.542969 201.636719 C 68.40625 201.636719 71.988281 194.792969 79.15625 170.039062 C 83.714844 153.425781 89.90625 129.972656 97.722656 98.046875 C 111.730469 39.089844 128.667969 -37.132812 145.28125 -111.402344 C 161.894531 -185.671875 177.53125 -256.359375 187.953125 -298.378906 C 232.582031 -312.386719 279.160156 -326.394531 319.226562 -338.445312 C 359.621094 -350.824219 394.148438 -361.25 417.277344 -368.742188 C 420.535156 -369.71875 422.488281 -373.300781 421.1875 -376.558594 Z M 421.1875 -376.558594 "/></g></g></g><g fill="#000000" fill-opacity="1"><g transform="translate(987.317668, 475.280714)"><g><path d="M 238.769531 -285.351562 C 222.808594 -300.335938 203.914062 -304.570312 185.347656 -297.078125 C 171.339844 -291.539062 157.984375 -279.488281 146.257812 -262.222656 C 142.351562 -261.898438 138.441406 -261.246094 134.859375 -259.941406 C 89.90625 -244.957031 55.050781 -171.015625 37.460938 -107.167969 C 17.265625 -33.878906 11.074219 29.96875 20.195312 77.851562 C 28.339844 121.828125 48.863281 151.144531 77.851562 159.941406 C 83.714844 161.894531 90.230469 162.871094 96.746094 162.871094 C 145.933594 162.871094 210.753906 110.101562 254.078125 -16.289062 C 297.402344 -142.351562 279.160156 -247.238281 238.769531 -285.351562 Z M 242.351562 -20.523438 C 198.050781 109.125 127.691406 162.546875 81.4375 148.214844 C 34.855469 133.554688 6.839844 50.164062 49.511719 -103.585938 C 70.359375 -178.832031 104.5625 -234.859375 137.136719 -247.238281 C 103.261719 -186.652344 81.109375 -77.527344 74.59375 64.496094 C 74.59375 68.082031 77.199219 71.011719 80.785156 71.011719 C 84.042969 71.011719 86.972656 68.40625 87.300781 65.148438 C 94.464844 -101.632812 122.152344 -200.65625 153.097656 -249.84375 C 160.589844 -249.191406 168.082031 -246.261719 175.574219 -240.398438 C 178.179688 -238.445312 182.089844 -238.769531 184.371094 -241.703125 C 186.324219 -244.308594 186 -248.214844 183.066406 -250.496094 C 175.902344 -256.035156 168.734375 -259.617188 161.242188 -261.246094 C 170.6875 -273.949219 180.460938 -281.769531 190.234375 -285.675781 C 207.5 -292.515625 221.503906 -284.375 229.972656 -276.230469 C 266.785156 -241.703125 283.394531 -140.070312 242.351562 -20.523438 Z M 242.351562 -20.523438 "/></g></g></g></svg>